<svg width="57" height="45" viewBox="0 0 57 45" fill="none" xmlns="http://www.w3.org/2000/svg">
<path d="M14.4375 0.472656C10.7266 0.375 6.52734 1.35156 2.13281 3.30469C1.05859 3.79297 0.375 4.86719 0.375 6.13672V41.0977C0.375 42.1719 1.44922 42.9531 2.52344 42.4648C14.8281 36.7031 24.0078 43.5391 24.3984 43.832C24.6914 44.0273 24.9844 44.125 25.375 44.125C26.5469 44.125 26.9375 43.0508 26.9375 42.6602V5.16016C26.9375 4.57422 26.6445 4.08594 26.2539 3.79297C26.0586 3.69531 21.4688 0.570312 14.4375 0.472656ZM54.7695 3.30469C50.375 1.35156 46.0781 0.375 42.4648 0.472656C35.4336 0.570312 30.9414 3.69531 30.6484 3.79297C30.2578 4.08594 30.0625 4.57422 30.0625 5.16016V42.5625C30.0625 43.0508 30.3555 44.125 31.625 44.125C31.918 44.125 32.2109 44.0273 32.5039 43.832C32.8945 43.5391 42.0742 36.7031 54.3789 42.4648C55.4531 42.9531 56.625 42.1719 56.625 41.0977V6.13672C56.5273 4.86719 55.8438 3.79297 54.7695 3.30469Z" fill="#8F3034"/>
</svg>
