<svg width="45" height="51" viewBox="0 0 45 51" fill="none" xmlns="http://www.w3.org/2000/svg">
<path d="M16.25 3.375V6.5H28.75V3.375C28.75 1.71484 30.1172 0.25 31.875 0.25C33.5352 0.25 35 1.71484 35 3.375V6.5H39.6875C42.2266 6.5 44.375 8.64844 44.375 11.1875V15.875H0.625V11.1875C0.625 8.64844 2.67578 6.5 5.3125 6.5H10V3.375C10 1.71484 11.3672 0.25 13.125 0.25C14.7852 0.25 16.25 1.71484 16.25 3.375ZM0.625 19H44.375V45.5625C44.375 48.1992 42.2266 50.25 39.6875 50.25H5.3125C2.67578 50.25 0.625 48.1992 0.625 45.5625V19ZM31.0938 36.9688C32.3633 36.9688 33.4375 35.9922 33.4375 34.625C33.4375 33.3555 32.3633 32.2812 31.0938 32.2812H13.9062C12.5391 32.2812 11.5625 33.3555 11.5625 34.625C11.5625 35.9922 12.5391 36.9688 13.9062 36.9688H31.0938Z" fill="#8F3034"/>
</svg>
