<svg width="51" height="51" viewBox="0 0 51 51" fill="none" xmlns="http://www.w3.org/2000/svg">
<path d="M25.5 50.25C11.6328 50.25 0.5 39.1172 0.5 25.25C0.5 11.4805 11.6328 0.25 25.5 0.25C39.2695 0.25 50.5 11.4805 50.5 25.25C50.5 39.1172 39.2695 50.25 25.5 50.25ZM23.1562 25.25C23.1562 26.0312 23.5469 26.8125 24.1328 27.2031L33.5078 33.4531C34.582 34.2344 36.0469 33.9414 36.7305 32.8672C37.5117 31.793 37.2188 30.3281 36.1445 29.5469L27.8438 24.0781V11.9688C27.8438 10.6992 26.7695 9.625 25.4023 9.625C24.1328 9.625 23.0586 10.6992 23.0586 11.9688L23.1562 25.25Z" fill="#8F3034"/>
</svg>
