<svg width="45" height="51" viewBox="0 0 45 51" fill="none" xmlns="http://www.w3.org/2000/svg">
<path d="M16.25 3.375V6.5H28.75V3.375C28.75 1.71484 30.1172 0.25 31.875 0.25C33.5352 0.25 35 1.71484 35 3.375V6.5H39.6875C42.2266 6.5 44.375 8.64844 44.375 11.1875V15.875H0.625V11.1875C0.625 8.64844 2.67578 6.5 5.3125 6.5H10V3.375C10 1.71484 11.3672 0.25 13.125 0.25C14.7852 0.25 16.25 1.71484 16.25 3.375ZM0.625 19H44.375V45.5625C44.375 48.1992 42.2266 50.25 39.6875 50.25H5.3125C2.67578 50.25 0.625 48.1992 0.625 45.5625V19ZM6.875 29.9375C6.875 30.8164 7.55859 31.5 8.4375 31.5H11.5625C12.3438 31.5 13.125 30.8164 13.125 29.9375V26.8125C13.125 26.0312 12.3438 25.25 11.5625 25.25H8.4375C7.55859 25.25 6.875 26.0312 6.875 26.8125V29.9375ZM19.375 29.9375C19.375 30.8164 20.0586 31.5 20.9375 31.5H24.0625C24.8438 31.5 25.625 30.8164 25.625 29.9375V26.8125C25.625 26.0312 24.8438 25.25 24.0625 25.25H20.9375C20.0586 25.25 19.375 26.0312 19.375 26.8125V29.9375ZM33.4375 25.25C32.5586 25.25 31.875 26.0312 31.875 26.8125V29.9375C31.875 30.8164 32.5586 31.5 33.4375 31.5H36.5625C37.3438 31.5 38.125 30.8164 38.125 29.9375V26.8125C38.125 26.0312 37.3438 25.25 36.5625 25.25H33.4375ZM6.875 42.4375C6.875 43.3164 7.55859 44 8.4375 44H11.5625C12.3438 44 13.125 43.3164 13.125 42.4375V39.3125C13.125 38.5312 12.3438 37.75 11.5625 37.75H8.4375C7.55859 37.75 6.875 38.5312 6.875 39.3125V42.4375ZM20.9375 37.75C20.0586 37.75 19.375 38.5312 19.375 39.3125V42.4375C19.375 43.3164 20.0586 44 20.9375 44H24.0625C24.8438 44 25.625 43.3164 25.625 42.4375V39.3125C25.625 38.5312 24.8438 37.75 24.0625 37.75H20.9375ZM31.875 42.4375C31.875 43.3164 32.5586 44 33.4375 44H36.5625C37.3438 44 38.125 43.3164 38.125 42.4375V39.3125C38.125 38.5312 37.3438 37.75 36.5625 37.75H33.4375C32.5586 37.75 31.875 38.5312 31.875 39.3125V42.4375Z" fill="#8F3034"/>
</svg>
