<svg width="64" height="51" viewBox="0 0 64 51" fill="none" xmlns="http://www.w3.org/2000/svg">
<path d="M22.5273 25.25C29.3633 25.25 35.0273 19.6836 35.0273 12.75C35.0273 5.91406 29.3633 0.25 22.5273 0.25C15.6914 0.25 10.125 5.91406 10.125 12.75C10.125 19.6836 15.6914 25.25 22.5273 25.25ZM27.5078 29.9375H17.6445C8.26953 29.9375 0.75 37.5547 0.75 46.9297C0.75 48.7852 2.21484 50.25 4.07031 50.25H32.0977C31.9023 49.7617 31.9023 49.1758 32 48.5898L33.4648 41.6562C33.6602 40.6797 34.0508 39.8008 34.7344 39.1172L39.2266 34.7227C36.1992 31.793 32.0977 29.9375 27.5078 29.9375ZM36.9805 41.3633C36.6875 41.6562 36.5898 41.9492 36.4922 42.2422L35.125 49.2734C34.9297 49.8594 35.5156 50.4453 36.1016 50.25L43.1328 48.8828C43.4258 48.7852 43.7188 48.6875 44.0117 48.3945L56.2188 36.1875L49.1875 29.1562L36.9805 41.3633ZM62.1758 25.25L60.125 23.1992C58.7578 21.832 56.5117 21.832 55.1445 23.1992L51.4336 26.9102L58.4648 33.9414L62.1758 30.2305C63.543 28.8633 63.543 26.6172 62.1758 25.25Z" fill="#8F3034"/>
</svg>
