<svg width="31" height="27" viewBox="0 0 31 27" fill="none" xmlns="http://www.w3.org/2000/svg">
<path d="M6.44628 26.875C3.28221 26.875 0.821276 24.3555 0.821276 21.25V6.25C0.821276 3.14453 3.28221 0.625 6.44628 0.625H10.1963C11.1924 0.625 12.0713 1.50391 12.0713 2.5C12.0713 3.55469 11.1924 4.375 10.1963 4.375H6.44628C5.39159 4.375 4.57128 5.25391 4.57128 6.25V21.25C4.57128 22.3047 5.39159 23.125 6.44628 23.125H10.1963C11.1924 23.125 12.0713 24.0039 12.0713 25C12.0713 26.0547 11.1924 26.875 10.1963 26.875H6.44628ZM30.3525 12.7539C30.9385 13.2812 30.9385 14.2773 30.3525 14.7461L21.915 22.7148C21.5049 23.125 20.9189 23.1836 20.3916 23.0078C19.8642 22.7734 19.5713 22.2461 19.5713 21.7188V17.5H12.0713C11.0166 17.5 10.1963 16.6797 10.1963 15.625V11.875C10.1963 10.8789 11.0166 10 12.0713 10H19.5713V5.78125C19.5713 5.25391 19.8642 4.72656 20.3916 4.49219C20.9189 4.31641 21.5049 4.375 21.915 4.78516L30.3525 12.7539Z" fill="white"/>
</svg>
