<svg width="57" height="48" viewBox="0 0 57 48" fill="none" xmlns="http://www.w3.org/2000/svg">
<path d="M24.8867 19.5625C24.8867 18.4883 25.7656 17.6094 26.8398 17.6094H28.4023C29.5742 17.6094 30.4531 18.4883 30.4531 19.5625V26.2031H30.8438C31.918 26.2031 32.7969 27.082 32.7969 28.1562C32.7969 29.2305 31.918 30.1094 30.8438 30.1094H26.0586C24.9844 30.1094 24.1055 29.2305 24.1055 28.1562C24.1055 27.082 24.9844 26.2031 26.0586 26.2031H26.4492V21.5156C25.5703 21.3203 24.8867 20.5391 24.8867 19.5625ZM5.0625 7.0625C12.875 9.11328 20.6875 7.16016 28.5 5.20703C36.9961 3.05859 45.4922 0.8125 53.9883 4.03516C55.5508 4.62109 56.625 6.28125 56.625 8.03906V38.3125C56.625 40.6562 54.0859 42.2188 51.8398 41.5352C44.0273 39.4844 36.2148 41.4375 28.5 43.3906C19.9062 45.5391 11.4102 47.7852 2.91406 44.5625C1.35156 43.9766 0.375 42.3164 0.375 40.5586V10.2852C0.375 7.94141 2.81641 6.37891 5.0625 7.0625ZM12.7773 39.875C12.7773 36.457 10.043 33.625 6.52734 33.625V39.875H12.7773ZM6.52734 21.125C10.043 21.125 12.7773 18.3906 12.7773 14.875H6.52734V21.125ZM50.375 33.625V27.375C46.8594 27.375 44.125 30.207 44.125 33.625H50.375ZM50.375 8.625H44.125C44.125 12.1406 46.8594 14.875 50.375 14.875V8.625ZM28.4023 13.3125C23.2266 13.3125 19.0273 18.293 19.0273 24.25C19.0273 30.3047 23.2266 35.1875 28.4023 35.1875C33.6758 35.1875 37.875 30.3047 37.875 24.25C37.875 18.293 33.6758 13.3125 28.4023 13.3125Z" fill="#8F3034"/>
</svg>
