<svg width="23" height="21" viewBox="0 0 23 21" fill="none" xmlns="http://www.w3.org/2000/svg">
<path d="M15.9531 3.78125C15.7969 3.625 15.5625 3.625 15.4062 3.78125L6.89062 12.2969L6.5 15.9297C6.42188 16.3984 6.85156 16.8281 7.32031 16.75L10.9531 16.3594L19.4688 7.84375C19.625 7.6875 19.625 7.45312 19.4688 7.29688L15.9531 3.78125ZM22.2812 2.88281L20.3672 0.96875C19.7812 0.382812 18.8047 0.382812 18.2188 0.96875L16.8516 2.33594C16.6953 2.49219 16.6953 2.72656 16.8516 2.88281L20.3672 6.39844C20.5234 6.55469 20.7578 6.55469 20.9141 6.39844L22.2812 5.03125C22.8672 4.44531 22.8672 3.46875 22.2812 2.88281ZM15.25 14.0547V18H2.75V5.5H11.6953C11.8516 5.5 11.9688 5.46094 12.0469 5.38281L13.6094 3.82031C13.8828 3.50781 13.6875 3 13.2578 3H2.125C1.07031 3 0.25 3.85938 0.25 4.875V18.625C0.25 19.6797 1.07031 20.5 2.125 20.5H15.875C16.8906 20.5 17.75 19.6797 17.75 18.625V12.4922C17.75 12.0625 17.2422 11.8672 16.9297 12.1406L15.3672 13.7031C15.2891 13.7812 15.25 13.8984 15.25 14.0547Z" fill="#8F3034"/>
</svg>
