<svg width="31" height="27" viewBox="0 0 31 27" fill="none" xmlns="http://www.w3.org/2000/svg">
<path d="M6.44628 26.875H10.1963C11.1924 26.875 12.0713 26.0547 12.0713 25C12.0713 24.0039 11.1924 23.125 10.1963 23.125H6.44628C5.39159 23.125 4.57128 22.3047 4.57128 21.25V6.25C4.57128 5.25391 5.39159 4.375 6.44628 4.375H10.1963C11.1924 4.375 12.0713 3.55469 12.0713 2.5C12.0713 1.50391 11.1924 0.625 10.1963 0.625H6.44628C3.28221 0.625 0.821276 3.14453 0.821276 6.25V21.25C0.821276 24.3555 3.28221 26.875 6.44628 26.875ZM30.3525 12.7539L21.915 4.78516C21.5049 4.375 20.9189 4.31641 20.3916 4.49219C19.8642 4.72656 19.5713 5.25391 19.5713 5.78125V10H12.0713C11.0166 10 10.1963 10.8789 10.1963 11.875V15.625C10.1963 16.6797 11.0166 17.5 12.0713 17.5H19.5713V21.7188C19.5713 22.2461 19.8642 22.7734 20.3916 23.0078C20.9189 23.1836 21.5049 23.125 21.915 22.7148L30.3525 14.7461C30.9385 14.2773 30.9385 13.2812 30.3525 12.7539Z" fill="white"/>
</svg>
