<svg width="43" height="43" viewBox="0 0 43 43" fill="none" xmlns="http://www.w3.org/2000/svg">
<path d="M40.8755 36.6875L31.5005 27.3125C33.6098 24.1875 34.7036 20.2812 34.1567 16.0625C33.1411 8.875 27.2817 3.09375 20.1723 2.15625C9.54733 0.828125 0.562954 9.8125 1.89108 20.4375C2.82858 27.5469 8.60983 33.4062 15.7973 34.4219C20.0161 34.9688 23.9223 33.875 27.1255 31.7656L36.4223 41.1406C37.6723 42.3125 39.6255 42.3125 40.8755 41.1406C42.0473 39.8906 42.0473 37.9375 40.8755 36.6875ZM7.98483 18.25C7.98483 12.7812 12.438 8.25 17.9848 8.25C23.4536 8.25 27.9848 12.7812 27.9848 18.25C27.9848 23.7969 23.4536 28.25 17.9848 28.25C12.438 28.25 7.98483 23.7969 7.98483 18.25Z" fill="#8F3034"/>
</svg>
