<svg width="35" height="36" viewBox="0 0 35 36" fill="none" xmlns="http://www.w3.org/2000/svg">
<path d="M24.0625 6.9375C24.0625 3.31445 21.123 0.375 17.5 0.375C13.8086 0.375 10.9375 3.31445 10.9375 6.9375C10.9375 10.6289 13.8086 13.5 17.5 13.5C21.123 13.5 24.0625 10.6289 24.0625 6.9375ZM15.9277 16.918C11.8945 14.3887 5.33203 13.7051 1.98242 13.5684C0.888672 13.5 0 14.3203 0 15.4141V30.5898C0 31.6152 0.751953 32.4355 1.77734 32.4355C4.78516 32.6406 10.8008 33.1875 14.9707 35.3066C15.5859 35.6484 16.4062 35.1699 16.4062 34.4863V17.6699C16.4062 17.3281 16.2012 17.0547 15.9277 16.918ZM32.9492 13.5684C29.5996 13.7051 23.0371 14.3887 19.0039 16.918C18.7305 17.0547 18.5938 17.3965 18.5938 17.6699V34.4863C18.5938 35.1699 19.3457 35.6484 19.9609 35.3066C24.1309 33.1875 30.1465 32.6406 33.1543 32.5039C34.1797 32.4355 35 31.6152 35 30.5898V15.4141C35 14.3203 34.043 13.5 32.9492 13.5684Z" fill="#8F3034"/>
</svg>
