<svg width="31" height="36" viewBox="0 0 31 36" fill="none" xmlns="http://www.w3.org/2000/svg">
<path d="M27.5312 17.875C29.3086 17.875 30.8125 19.3789 30.8125 21.1562V32.0938C30.8125 33.9395 29.3086 35.375 27.5312 35.375H3.46875C1.62305 35.375 0.1875 33.9395 0.1875 32.0938V21.1562C0.1875 19.3789 1.62305 17.875 3.46875 17.875H5.10938V10.9023C5.10938 5.16016 9.68945 0.443359 15.4316 0.375C21.1738 0.375 25.8906 5.02344 25.8906 10.7656V11.8594C25.8906 12.8164 25.1387 13.5 24.25 13.5H22.0625C21.1055 13.5 20.4219 12.8164 20.4219 11.8594V10.7656C20.4219 8.09961 18.166 5.84375 15.4316 5.84375C12.6973 5.91211 10.5781 8.16797 10.5781 10.834V17.875H27.5312ZM18.2344 28.2656V24.9844C18.2344 23.4805 17.0039 22.25 15.5 22.25C13.9277 22.25 12.7656 23.4805 12.7656 24.9844V28.2656C12.7656 29.8379 13.9277 31 15.5 31C17.0039 31 18.2344 29.8379 18.2344 28.2656Z" fill="#8F3034"/>
</svg>
