<svg width="35" height="35" viewBox="0 0 35 35" fill="none" xmlns="http://www.w3.org/2000/svg">
<path d="M17.5 0.921875C8.13477 0.921875 0.546875 8.57812 0.546875 17.875C0.546875 27.2402 8.13477 34.8281 17.5 34.8281C26.7969 34.8281 34.4531 27.2402 34.4531 17.875C34.4531 8.57812 26.7969 0.921875 17.5 0.921875ZM17.5 8.44141C19.0723 8.44141 20.3711 9.74023 20.3711 11.3125C20.3711 12.9531 19.0723 14.1836 17.5 14.1836C15.8594 14.1836 14.6289 12.9531 14.6289 11.3125C14.6289 9.74023 15.8594 8.44141 17.5 8.44141ZM21.3281 25.8047C21.3281 26.2832 20.918 26.625 20.5078 26.625H14.4922C14.0137 26.625 13.6719 26.2832 13.6719 25.8047V24.1641C13.6719 23.7539 14.0137 23.3438 14.4922 23.3438H15.3125V18.9688H14.4922C14.0137 18.9688 13.6719 18.627 13.6719 18.1484V16.5078C13.6719 16.0977 14.0137 15.6875 14.4922 15.6875H18.8672C19.2773 15.6875 19.6875 16.0977 19.6875 16.5078V23.3438H20.5078C20.918 23.3438 21.3281 23.7539 21.3281 24.1641V25.8047Z" fill="#8F3034"/>
</svg>
