<svg width="29" height="33" viewBox="0 0 29 33" fill="none" xmlns="http://www.w3.org/2000/svg">
<path d="M15.4062 0H22.4354C23.1547 0 23.8457 0.328711 24.3555 0.908789L28.2014 5.28516C28.7111 5.86523 29 6.65156 29 7.47012V21.6562C29 23.3643 27.7822 24.75 26.2812 24.75H15.4062C13.9053 24.75 12.6875 23.3643 12.6875 21.6562V3.09375C12.6875 1.38574 13.9053 0 15.4062 0ZM2.71875 8.25H10.875V12.375H3.625V28.875H14.5V26.8125H18.125V29.9062C18.125 31.6143 16.9072 33 15.4062 33H2.71875C1.21777 33 0 31.6143 0 29.9062V11.3438C0 9.63574 1.21777 8.25 2.71875 8.25Z" fill="#8F3034"/>
</svg>
