<svg width="50" height="51" viewBox="0 0 50 51" fill="none" xmlns="http://www.w3.org/2000/svg">
<path d="M50 17.5352C50 7.96484 42.2852 0.25 32.7148 0.25C23.2422 0.347656 15.625 7.96484 15.625 17.4375C15.625 19.3906 15.918 21.1484 16.4062 22.9062L0.683594 38.6289C0.195312 39.1172 0 39.7031 0 40.2891V47.9062C0 49.2734 0.976562 50.25 2.34375 50.25H13.2812C14.5508 50.25 15.625 49.2734 15.625 47.9062V44H19.5312C20.8008 44 21.875 43.0234 21.875 41.6562V37.75H25.4883C26.1719 37.75 26.7578 37.457 27.2461 36.9688L29.5898 34.332C30.5664 34.5273 31.6406 34.625 32.8125 34.625C42.2852 34.625 50 27.0078 50 17.5352ZM32.8125 12.75C32.8125 10.2109 34.8633 8.0625 37.5 8.0625C40.0391 8.0625 42.1875 10.2109 42.1875 12.75C42.1875 15.3867 40.0391 17.4375 37.5 17.4375C34.8633 17.4375 32.8125 15.3867 32.8125 12.75Z" fill="#8F3034"/>
</svg>
