<svg width="44" height="51" viewBox="0 0 44 51" fill="none" xmlns="http://www.w3.org/2000/svg">
<path d="M22 25.25C28.8359 25.25 34.5 19.6836 34.5 12.75C34.5 5.91406 28.8359 0.25 22 0.25C15.0664 0.25 9.5 5.91406 9.5 12.75C9.5 19.6836 15.0664 25.25 22 25.25ZM30.6914 28.375H29.0312C26.8828 29.4492 24.5391 29.9375 22 29.9375C19.4609 29.9375 17.0195 29.4492 14.8711 28.375H13.2109C5.98438 28.375 0.125 34.332 0.125 41.5586V45.5625C0.125 48.1992 2.17578 50.25 4.8125 50.25H39.1875C41.7266 50.25 43.875 48.1992 43.875 45.5625V41.5586C43.875 34.332 37.918 28.375 30.6914 28.375Z" fill="#8F3034"/>
</svg>
