<svg width="23" height="21" viewBox="0 0 23 21" fill="none" xmlns="http://www.w3.org/2000/svg">
<path d="M19.9375 13C20.3672 13 20.7578 12.7266 20.875 12.2969L22.7109 4.17188C22.8281 3.58594 22.3984 3 21.7734 3H6.46094L6.10938 1.28125C5.99219 0.851562 5.60156 0.5 5.17188 0.5H1.1875C0.640625 0.5 0.25 0.929688 0.25 1.4375V2.0625C0.25 2.60938 0.640625 3 1.1875 3H3.88281L6.65625 16.4375C5.95312 16.8281 5.48438 17.5703 5.5625 18.4688C5.60156 19.5625 6.5 20.4609 7.63281 20.5C8.88281 20.5781 9.9375 19.5625 9.9375 18.3125C9.9375 17.7266 9.66406 17.1797 9.27344 16.75H17.4375C17.0469 17.1797 16.7734 17.7656 16.8125 18.3906C16.8125 19.5625 17.7891 20.5 18.9609 20.5C20.1719 20.5391 21.1875 19.5625 21.1875 18.3125C21.1875 17.4531 20.6797 16.7109 19.9375 16.3594L20.1328 15.4219C20.2891 14.8359 19.8203 14.25 19.2344 14.25H8.76562L8.49219 13H19.9375ZM16.1875 7.0625C16.5 7.0625 16.8125 7.375 16.8125 7.6875V8.3125C16.8125 8.66406 16.5 8.9375 16.1875 8.9375H14.3125V10.5C14.3125 10.8516 14 11.125 13.6875 11.125H13.0625C12.7109 11.125 12.4375 10.8516 12.4375 10.5V8.9375H10.5625C10.2109 8.9375 9.9375 8.66406 9.9375 8.3125V7.6875C9.9375 7.375 10.2109 7.0625 10.5625 7.0625H12.4375V5.5C12.4375 5.1875 12.7109 4.875 13.0625 4.875H13.6875C14 4.875 14.3125 5.1875 14.3125 5.5V7.0625H16.1875Z" fill="#8F3034"/>
</svg>
