<svg width="33" height="23" viewBox="0 0 33 23" fill="none" xmlns="http://www.w3.org/2000/svg">
<path d="M5.5489 10.0625C7.25789 10.0625 8.6739 8.69531 8.6739 6.9375C8.6739 5.22852 7.25789 3.8125 5.5489 3.8125C3.79109 3.8125 2.4239 5.22852 2.4239 6.9375C2.4239 8.69531 3.79109 10.0625 5.5489 10.0625ZM27.4239 10.0625C29.1329 10.0625 30.5489 8.69531 30.5489 6.9375C30.5489 5.22852 29.1329 3.8125 27.4239 3.8125C25.6661 3.8125 24.2989 5.22852 24.2989 6.9375C24.2989 8.69531 25.6661 10.0625 27.4239 10.0625ZM28.9864 11.625H25.8614C24.9825 11.625 24.2012 12.0156 23.6153 12.5527C25.6173 13.627 26.9845 15.5801 27.3262 17.875H30.5489C31.379 17.875 32.1114 17.1914 32.1114 16.3125V14.75C32.1114 13.041 30.6954 11.625 28.9864 11.625ZM16.4864 11.625C19.4649 11.625 21.9552 9.18359 21.9552 6.15625C21.9552 3.17773 19.4649 0.6875 16.4864 0.6875C13.4591 0.6875 11.0177 3.17773 11.0177 6.15625C11.0177 9.18359 13.4591 11.625 16.4864 11.625ZM20.1973 13.1875H19.8067C18.7813 13.6758 17.6583 13.9688 16.4864 13.9688C15.2657 13.9688 14.1427 13.6758 13.1173 13.1875H12.7266C9.60164 13.1875 7.1114 15.7266 7.1114 18.8516V20.2188C7.1114 21.5371 8.1368 22.5625 9.45515 22.5625H23.5177C24.7872 22.5625 25.8614 21.5371 25.8614 20.2188V18.8516C25.8614 15.7266 23.3223 13.1875 20.1973 13.1875ZM9.30867 12.5527C8.72273 12.0156 7.94148 11.625 7.1114 11.625H3.9864C2.22859 11.625 0.861404 13.041 0.861404 14.75V16.3125C0.861404 17.1914 1.545 17.875 2.4239 17.875H5.59773C5.93953 15.5801 7.30672 13.627 9.30867 12.5527Z" fill="#FCF5F4"/>
</svg>


