<svg width="28" height="29" viewBox="0 0 28 29" fill="none" xmlns="http://www.w3.org/2000/svg">
<path d="M19.25 5.75C19.25 2.85156 16.8984 0.5 14 0.5C11.0469 0.5 8.75 2.85156 8.75 5.75C8.75 8.70312 11.0469 11 14 11C16.8984 11 19.25 8.70312 19.25 5.75ZM12.7422 13.7344C9.51562 11.7109 4.26562 11.1641 1.58594 11.0547C0.710938 11 0 11.6562 0 12.5312V24.6719C0 25.4922 0.601562 26.1484 1.42188 26.1484C3.82812 26.3125 8.64062 26.75 11.9766 28.4453C12.4688 28.7188 13.125 28.3359 13.125 27.7891V14.3359C13.125 14.0625 12.9609 13.8438 12.7422 13.7344ZM26.3594 11.0547C23.6797 11.1641 18.4297 11.7109 15.2031 13.7344C14.9844 13.8438 14.875 14.1172 14.875 14.3359V27.7891C14.875 28.3359 15.4766 28.7188 15.9688 28.4453C19.3047 26.75 24.1172 26.3125 26.5234 26.2031C27.3438 26.1484 28 25.4922 28 24.6719V12.5312C28 11.6562 27.2344 11 26.3594 11.0547Z" fill="#8F3034"/>
</svg>
