<svg width="35" height="31" viewBox="0 0 35 31" fill="none" xmlns="http://www.w3.org/2000/svg">
<path d="M34.0953 15.75C34.0953 16.8047 33.2163 17.625 32.2203 17.625H30.3453L30.4038 27C30.4038 27.1758 30.4038 27.3516 30.4038 27.4688V28.4062C30.4038 29.7539 29.3492 30.75 28.0601 30.75H27.1226C27.0054 30.75 26.9468 30.75 26.8882 30.75C26.8296 30.75 26.7124 30.75 26.6538 30.75H23.3726C22.0249 30.75 21.0288 29.7539 21.0288 28.4062V23.25C21.0288 22.2539 20.1499 21.375 19.1538 21.375H15.4038C14.3492 21.375 13.5288 22.2539 13.5288 23.25V28.4062C13.5288 29.7539 12.4742 30.75 11.1851 30.75H7.90385C7.78666 30.75 7.72807 30.75 7.61088 30.75C7.55228 30.75 7.49369 30.75 7.4351 30.75H6.4976C5.14994 30.75 4.15385 29.7539 4.15385 28.4062V21.8438C4.15385 21.8438 4.15385 21.7852 4.15385 21.7266V17.625H2.27885C1.22416 17.625 0.403847 16.8047 0.403847 15.75C0.403847 15.2227 0.579628 14.7539 0.989784 14.3438L15.9898 1.27734C16.3999 0.867188 16.8687 0.75 17.2788 0.75C17.689 0.75 18.1578 0.925781 18.5093 1.21875L33.4507 14.3438C33.9195 14.7539 34.1538 15.2227 34.0953 15.75Z" fill="#8F3034"/>
</svg>
