<svg width="28" height="29" viewBox="0 0 28 29" fill="none" xmlns="http://www.w3.org/2000/svg">
<path d="M10.5 11.875C10.5 10.9453 9.67969 10.125 8.75 10.125H7.875C5.90625 10.125 4.375 11.7109 4.375 13.625V16.25C4.375 18.2188 5.90625 19.75 7.875 19.75H8.75C9.67969 19.75 10.5 18.9844 10.5 18V11.875ZM20.125 19.75C22.0391 19.75 23.625 18.2188 23.625 16.25V13.625C23.625 11.7109 22.0391 10.125 20.125 10.125H19.25C18.2656 10.125 17.5 10.9453 17.5 11.875V18C17.5 18.9844 18.2656 19.75 19.25 19.75H20.125ZM14 0.5C6.17969 0.5 0.21875 7.00781 0 14.5V15.375C0 15.8672 0.382812 16.25 0.875 16.25H1.75C2.1875 16.25 2.625 15.8672 2.625 15.375V14.5C2.625 8.26562 7.71094 3.125 14 3.125C20.2344 3.125 25.375 8.26562 25.375 14.5H25.3203C25.3203 14.6641 25.375 23.5781 25.375 23.5781C25.375 24.8906 24.3359 25.875 23.0234 25.875H17.5C17.5 24.4531 16.2969 23.25 14.875 23.25H13.125C11.6484 23.25 10.5 24.4531 10.5 25.875C10.5 27.3516 11.6484 28.5 13.125 28.5H23.0234C25.7578 28.5 28 26.3125 28 23.5781V14.5C27.7266 7.00781 21.7656 0.5 14 0.5Z" fill="#8F3034"/>
</svg>
