<svg width="38" height="30" viewBox="0 0 38 30" fill="none" xmlns="http://www.w3.org/2000/svg">
<path d="M17.5078 8.89062C17.5664 9.24219 17.625 9.65234 17.625 10.0625C17.625 10.5312 17.5664 10.9414 17.5078 11.293L18.7969 12.4648C19.207 12.8164 19.3828 13.4023 19.1484 13.9297C19.0312 14.2227 18.8555 14.5742 18.7383 14.8672L18.5625 15.1602C18.3281 15.4531 18.1523 15.7461 17.9766 16.0391C17.625 16.4492 17.0391 16.625 16.5117 16.4492L14.8711 15.8633C14.2266 16.3906 13.5234 16.8008 12.7617 17.0938L12.3516 18.793C12.293 19.3789 11.8242 19.7891 11.2969 19.8477C10.8867 19.9062 10.4766 19.9062 10.125 19.9062C9.71484 19.9062 9.30469 19.9062 8.89453 19.8477C8.36719 19.7891 7.89844 19.3789 7.83984 18.793L7.42969 17.0938C6.66797 16.8008 5.96484 16.3906 5.32031 15.8633L3.67969 16.4492C3.15234 16.625 2.56641 16.4492 2.21484 16.0391C2.03906 15.7461 1.80469 15.4531 1.62891 15.1602L1.45312 14.8672C1.33594 14.5742 1.16016 14.2227 1.04297 13.9297C0.808594 13.4023 0.984375 12.8164 1.39453 12.4648L2.68359 11.293C2.625 10.9414 2.56641 10.5312 2.56641 10.0625C2.56641 9.65234 2.625 9.24219 2.68359 8.89062L1.39453 7.71875C0.984375 7.30859 0.808594 6.72266 1.04297 6.25391C1.16016 5.90234 1.33594 5.60938 1.45312 5.31641L1.62891 5.02344C1.80469 4.73047 2.03906 4.4375 2.21484 4.14453C2.56641 3.73438 3.15234 3.55859 3.67969 3.73438L5.32031 4.32031C5.96484 3.79297 6.66797 3.38281 7.42969 3.08984L7.83984 1.39062C7.89844 0.804688 8.36719 0.394531 8.89453 0.335938C9.30469 0.277344 9.71484 0.21875 10.125 0.21875C10.4766 0.21875 10.8867 0.277344 11.2969 0.335938C11.8242 0.394531 12.293 0.804688 12.3516 1.39062L12.7617 3.08984C13.5234 3.38281 14.2266 3.79297 14.8711 4.32031L16.5117 3.73438C17.0391 3.55859 17.625 3.73438 17.9766 4.14453C18.1523 4.4375 18.3281 4.73047 18.5625 5.02344L18.7383 5.31641C18.8555 5.60938 19.0312 5.90234 19.1484 6.25391C19.3828 6.72266 19.207 7.30859 18.7969 7.71875L17.5078 8.89062ZM10.125 7.25C8.54297 7.25 7.3125 8.53906 7.3125 10.0625C7.3125 11.6445 8.54297 12.875 10.125 12.875C11.6484 12.875 12.9375 11.6445 12.9375 10.0625C12.9375 8.53906 11.6484 7.25 10.125 7.25ZM29.1094 27.8164C28.7578 27.875 28.3477 27.875 27.9375 27.875C27.4688 27.875 27.0586 27.875 26.707 27.8164L25.5352 29.1055C25.125 29.5156 24.5977 29.6914 24.0703 29.457C23.7773 29.3398 23.4258 29.1641 23.1328 29.0469L22.8398 28.8125C22.5469 28.6367 22.2539 28.4609 21.9609 28.2852C21.5508 27.9336 21.375 27.3477 21.5508 26.8203L22.1367 25.1797C21.6094 24.5352 21.1992 23.832 20.9062 23.0117L19.207 22.6602C18.6211 22.543 18.2109 22.1328 18.1523 21.6055C18.0938 21.1953 18.0938 20.7852 18.0938 20.375C18.0938 20.0234 18.0938 19.6133 18.1523 19.2031C18.2109 18.6758 18.6211 18.207 19.207 18.0898L20.9062 17.7383C21.1992 16.9766 21.6094 16.2734 22.1367 15.6289L21.5508 13.9883C21.375 13.4609 21.5508 12.875 21.9609 12.5234C22.2539 12.3477 22.5469 12.1133 22.8398 11.9375L23.1328 11.7617C23.4258 11.6445 23.7188 11.4688 24.0703 11.3516C24.5977 11.1172 25.125 11.293 25.5352 11.7031L26.707 12.9922C27.0586 12.9336 27.4688 12.875 27.9375 12.875C28.3477 12.875 28.7578 12.9336 29.1094 12.9922L30.2812 11.7031C30.6914 11.293 31.2188 11.1172 31.7461 11.3516C32.0977 11.4688 32.3906 11.6445 32.6836 11.7617L32.9766 11.9375C33.2695 12.1133 33.5625 12.3477 33.8555 12.5234C34.2656 12.875 34.4414 13.4609 34.2656 13.9883L33.6797 15.6289C34.207 16.2734 34.6172 16.9766 34.9102 17.7383L36.6094 18.0898C37.1953 18.207 37.6055 18.6758 37.6641 19.2031C37.7227 19.6133 37.7812 20.0234 37.7812 20.375C37.7812 20.7852 37.7227 21.1953 37.6641 21.6055C37.6055 22.1328 37.1953 22.543 36.6094 22.6602L34.9102 23.0117C34.6172 23.832 34.207 24.5352 33.6797 25.1797L34.2656 26.8203C34.4414 27.3477 34.2656 27.9336 33.8555 28.2852C33.5625 28.4609 33.2695 28.6367 32.9766 28.8125L32.6836 29.0469C32.3906 29.1641 32.0391 29.3398 31.7461 29.457C31.2188 29.6914 30.6914 29.5156 30.2812 29.1055L29.1094 27.8164ZM30.75 20.375C30.75 18.8516 29.4609 17.5625 27.9375 17.5625C26.3555 17.5625 25.125 18.8516 25.125 20.375C25.125 21.957 26.3555 23.1875 27.9375 23.1875C29.4609 23.1875 30.75 21.957 30.75 20.375Z" fill="#8F3034"/>
</svg>
