<svg width="27" height="27" viewBox="0 0 27 27" fill="none" xmlns="http://www.w3.org/2000/svg">
<path d="M9.75 3.4375C9.75 1.91406 10.9805 0.625 12.5625 0.625H14.4375C15.9609 0.625 17.25 1.91406 17.25 3.4375V24.0625C17.25 25.6445 15.9609 26.875 14.4375 26.875H12.5625C10.9805 26.875 9.75 25.6445 9.75 24.0625V3.4375ZM0.375 14.6875C0.375 13.1641 1.60547 11.875 3.1875 11.875H5.0625C6.58594 11.875 7.875 13.1641 7.875 14.6875V24.0625C7.875 25.6445 6.58594 26.875 5.0625 26.875H3.1875C1.60547 26.875 0.375 25.6445 0.375 24.0625V14.6875ZM23.8125 4.375C25.3359 4.375 26.625 5.66406 26.625 7.1875V24.0625C26.625 25.6445 25.3359 26.875 23.8125 26.875H21.9375C20.3555 26.875 19.125 25.6445 19.125 24.0625V7.1875C19.125 5.66406 20.3555 4.375 21.9375 4.375H23.8125Z" fill="#8F3034"/>
</svg>
