<svg width="25" height="29" viewBox="0 0 25 29" fill="none" xmlns="http://www.w3.org/2000/svg">
<path d="M24.5 20.1875V1.8125C24.5 1.10156 23.8984 0.5 23.1875 0.5H5.25C2.35156 0.5 0 2.85156 0 5.75V23.25C0 26.1484 2.35156 28.5 5.25 28.5H23.1875C23.8984 28.5 24.5 27.9531 24.5 27.1875V26.3125C24.5 25.9297 24.2812 25.5469 24.0078 25.3281C23.7344 24.4531 23.7344 22.0469 24.0078 21.2266C24.2812 21.0078 24.5 20.625 24.5 20.1875ZM7 7.82812C7 7.66406 7.10938 7.5 7.32812 7.5H18.9219C19.0859 7.5 19.25 7.66406 19.25 7.82812V8.92188C19.25 9.14062 19.0859 9.25 18.9219 9.25H7.32812C7.10938 9.25 7 9.14062 7 8.92188V7.82812ZM7 11.3281C7 11.1641 7.10938 11 7.32812 11H18.9219C19.0859 11 19.25 11.1641 19.25 11.3281V12.4219C19.25 12.6406 19.0859 12.75 18.9219 12.75H7.32812C7.10938 12.75 7 12.6406 7 12.4219V11.3281ZM20.8359 25H5.25C4.26562 25 3.5 24.2344 3.5 23.25C3.5 22.3203 4.26562 21.5 5.25 21.5H20.8359C20.7266 22.4844 20.7266 24.0703 20.8359 25Z" fill="#8F3034"/>
</svg>
