<svg width="21" height="21" viewBox="0 0 21 21" fill="none" xmlns="http://www.w3.org/2000/svg">
<path d="M10.5 0.8125C5.14844 0.8125 0.8125 5.1875 0.8125 10.5C0.8125 15.8516 5.14844 20.1875 10.5 20.1875C15.8125 20.1875 20.1875 15.8516 20.1875 10.5C20.1875 5.1875 15.8125 0.8125 10.5 0.8125ZM10.5 5.10938C11.3984 5.10938 12.1406 5.85156 12.1406 6.75C12.1406 7.6875 11.3984 8.39062 10.5 8.39062C9.5625 8.39062 8.85938 7.6875 8.85938 6.75C8.85938 5.85156 9.5625 5.10938 10.5 5.10938ZM12.6875 15.0312C12.6875 15.3047 12.4531 15.5 12.2188 15.5H8.78125C8.50781 15.5 8.3125 15.3047 8.3125 15.0312V14.0938C8.3125 13.8594 8.50781 13.625 8.78125 13.625H9.25V11.125H8.78125C8.50781 11.125 8.3125 10.9297 8.3125 10.6562V9.71875C8.3125 9.48438 8.50781 9.25 8.78125 9.25H11.2812C11.5156 9.25 11.75 9.48438 11.75 9.71875V13.625H12.2188C12.4531 13.625 12.6875 13.8594 12.6875 14.0938V15.0312Z" fill="#8F3034"/>
</svg>
